<svg width="424" height="410" viewBox="0 0 424 410" fill="none" xmlns="http://www.w3.org/2000/svg">
<g clip-path="url(#clip0_1_179)">
<path d="M279.673 108.624H210.08C208.557 108.629 207.052 108.296 205.681 107.65C204.31 107.005 203.109 106.064 202.168 104.899C201.211 103.723 200.542 102.351 200.213 100.886C199.884 99.4212 199.903 97.9028 200.269 96.4463C206.683 70.3428 206.683 43.1387 200.269 17.0352C199.903 15.5788 199.884 14.0605 200.213 12.5958C200.542 11.1312 201.211 9.75884 202.168 8.58313C203.109 7.41835 204.31 6.47735 205.681 5.83174C207.052 5.18613 208.557 4.85291 210.08 4.85747H279.673C282.076 4.86418 284.398 5.69938 286.226 7.21432C288.054 8.72925 289.27 10.8256 289.656 13.1299C294.236 42.0336 294.236 71.4483 289.656 100.352C289.27 102.656 288.054 104.753 286.226 106.268C284.398 107.783 282.076 108.618 279.673 108.624Z" fill="#E6E6E6"/>
<path d="M210.081 9.94534C209.349 9.94295 208.626 10.1027 207.968 10.4126C207.309 10.7224 206.732 11.174 206.28 11.7332C205.815 12.3062 205.491 12.9746 205.331 13.6878C205.172 14.401 205.182 15.1401 205.361 15.8489C211.967 42.7324 211.967 70.7494 205.361 97.6329C205.182 98.3416 205.172 99.0806 205.331 99.7936C205.49 100.507 205.815 101.175 206.28 101.748L206.281 101.748C206.732 102.308 207.309 102.759 207.968 103.069C208.626 103.379 209.349 103.539 210.081 103.537H279.673C280.827 103.537 281.944 103.139 282.824 102.415C283.705 101.69 284.292 100.685 284.481 99.579C288.98 71.1876 288.98 42.2943 284.481 13.9029C284.292 12.7968 283.705 11.792 282.824 11.0673C281.944 10.3425 280.827 9.94495 279.673 9.94533L210.081 9.94534Z" fill="white"/>
<path d="M264.486 34.4102H227.967C226.578 34.4087 225.247 33.8722 224.266 32.9184C223.284 31.9646 222.732 30.6714 222.73 29.3225V27.3343C222.732 25.9854 223.284 24.6922 224.266 23.7384C225.247 22.7846 226.578 22.2481 227.967 22.2466H264.486C265.874 22.2481 267.205 22.7846 268.187 23.7384C269.168 24.6922 269.721 25.9854 269.722 27.3343V29.3225C269.721 30.6714 269.168 31.9646 268.187 32.9184C267.205 33.8722 265.874 34.4087 264.486 34.4102Z" fill="#E6E6E6"/>
<path d="M264.486 59.5323H227.967C226.578 59.5308 225.247 58.9943 224.266 58.0405C223.284 57.0867 222.732 55.7934 222.73 54.4446V52.4563C222.732 51.1075 223.284 49.8142 224.266 48.8604C225.247 47.9066 226.578 47.3701 227.967 47.3687H264.486C265.874 47.3701 267.205 47.9066 268.187 48.8604C269.168 49.8142 269.721 51.1075 269.722 52.4563V54.4446C269.721 55.7934 269.168 57.0867 268.187 58.0405C267.205 58.9943 265.874 59.5308 264.486 59.5323Z" fill="#E6E6E6"/>
<path d="M264.486 84.6543H227.967C226.578 84.6528 225.247 84.1163 224.266 83.1625C223.284 82.2087 222.732 80.9155 222.73 79.5666V77.5784C222.732 76.2295 223.284 74.9363 224.266 73.9825C225.247 73.0287 226.578 72.4922 227.967 72.4907H264.486C265.874 72.4922 267.205 73.0287 268.187 73.9825C269.168 74.9363 269.721 76.2295 269.722 77.5784V79.5666C269.721 80.9155 269.168 82.2087 268.187 83.1625C267.205 84.1163 265.874 84.6528 264.486 84.6543Z" fill="#E6E6E6"/>
<path d="M410.582 173.071H340.99C339.466 173.075 337.961 172.742 336.59 172.096C335.219 171.451 334.018 170.51 333.078 169.345C332.12 168.169 331.451 166.797 331.122 165.332C330.793 163.868 330.812 162.349 331.178 160.893C337.592 134.789 337.592 107.585 331.178 81.4815C330.812 80.0251 330.793 78.5068 331.122 77.0421C331.451 75.5775 332.12 74.2051 333.077 73.0294C334.018 71.8646 335.219 70.9236 336.59 70.278C337.961 69.6324 339.466 69.2992 340.99 69.3038H410.582C412.985 69.3105 415.307 70.1457 417.135 71.6606C418.963 73.1755 420.179 75.2718 420.565 77.5761C425.145 106.48 425.145 135.895 420.565 164.798C420.179 167.103 418.963 169.199 417.135 170.714C415.307 172.229 412.985 173.064 410.582 173.071Z" fill="#E6E6E6"/>
<path d="M340.989 74.3921C340.257 74.3897 339.535 74.5495 338.876 74.8593C338.218 75.1691 337.64 75.6208 337.189 76.18C336.723 76.7529 336.399 77.4214 336.239 78.1346C336.08 78.8478 336.09 79.5869 336.269 80.2957C342.875 107.179 342.875 135.196 336.269 162.08C336.09 162.788 336.08 163.527 336.239 164.24C336.399 164.953 336.723 165.622 337.188 166.195L337.189 166.195C337.641 166.754 338.218 167.206 338.876 167.516C339.535 167.826 340.257 167.986 340.989 167.983H410.581C411.735 167.984 412.852 167.586 413.732 166.861C414.613 166.137 415.2 165.132 415.389 164.026C419.888 135.634 419.888 106.741 415.389 78.3496C415.2 77.2436 414.613 76.2388 413.732 75.514C412.852 74.7893 411.735 74.3917 410.581 74.3921L340.989 74.3921Z" fill="white"/>
<path d="M271.818 246.422H202.226C200.636 246.426 199.067 246.079 197.636 245.405C196.206 244.731 194.952 243.75 193.971 242.535C192.973 241.309 192.276 239.877 191.932 238.35C191.589 236.823 191.609 235.239 191.99 233.721C198.388 207.682 198.388 180.546 191.99 154.507C191.609 152.989 191.589 151.405 191.932 149.878C192.275 148.351 192.973 146.92 193.971 145.694C194.952 144.479 196.206 143.497 197.636 142.823C199.067 142.15 200.636 141.802 202.226 141.807H271.818C274.325 141.814 276.748 142.686 278.655 144.266C280.562 145.847 281.83 148.034 282.233 150.438C286.82 179.385 286.82 208.843 282.233 237.79C281.83 240.194 280.562 242.381 278.655 243.962C276.748 245.543 274.325 246.414 271.818 246.422Z" fill="#F2F2F2"/>
<path d="M395.395 111.577H358.876C357.488 111.575 356.157 111.039 355.175 110.085C354.193 109.131 353.641 107.838 353.64 106.489V104.501C353.641 103.152 354.193 101.859 355.175 100.905C356.157 99.9511 357.488 99.4146 358.876 99.4131H395.395C396.783 99.4146 398.114 99.9511 399.096 100.905C400.078 101.859 400.63 103.152 400.631 104.501V106.489C400.63 107.838 400.078 109.131 399.096 110.085C398.114 111.039 396.783 111.575 395.395 111.577Z" fill="#E6E6E6"/>
<path d="M395.395 136.699H358.876C357.488 136.697 356.157 136.161 355.175 135.207C354.193 134.253 353.641 132.96 353.64 131.611V129.623C353.641 128.274 354.193 126.981 355.175 126.027C356.157 125.073 357.488 124.537 358.876 124.535H395.395C396.783 124.537 398.114 125.073 399.096 126.027C400.078 126.981 400.63 128.274 400.631 129.623V131.611C400.63 132.96 400.078 134.253 399.096 135.207C398.114 136.161 396.783 136.697 395.395 136.699Z" fill="#E6E6E6"/>
<path d="M237.216 213.268C248.302 213.268 257.289 204.536 257.289 193.764C257.289 182.993 248.302 174.261 237.216 174.261C226.13 174.261 217.144 182.993 217.144 193.764C217.144 204.536 226.13 213.268 237.216 213.268Z" fill="white"/>
<path d="M246.816 191.22H239.834V184.437C239.834 183.762 239.559 183.115 239.068 182.638C238.577 182.161 237.911 181.893 237.216 181.893C236.522 181.893 235.856 182.161 235.365 182.638C234.874 183.115 234.598 183.762 234.598 184.437V191.22H227.616C226.922 191.22 226.256 191.488 225.765 191.966C225.274 192.443 224.998 193.09 224.998 193.764C224.998 194.439 225.274 195.086 225.765 195.563C226.256 196.04 226.922 196.308 227.616 196.308H234.598V203.092C234.598 203.767 234.874 204.414 235.365 204.891C235.856 205.368 236.522 205.636 237.216 205.636C237.911 205.636 238.577 205.368 239.068 204.891C239.559 204.414 239.834 203.767 239.834 203.092V196.308H246.816C247.511 196.308 248.177 196.04 248.668 195.563C249.159 195.086 249.434 194.439 249.434 193.764C249.434 193.09 249.159 192.443 248.668 191.966C248.177 191.488 247.511 191.22 246.816 191.22Z" fill="#E6E6E6"/>
<path d="M262.526 14.4157H225.872C224.83 14.4146 223.832 14.0122 223.096 13.2968C222.36 12.5814 221.946 11.6115 221.944 10.5998V3.81593C221.946 2.80423 222.36 1.8343 223.096 1.11892C223.832 0.40354 224.83 0.00114016 225.872 0H262.526C263.567 0.00114016 264.566 0.40354 265.302 1.11892C266.038 1.8343 266.452 2.80423 266.453 3.81593V10.5998C266.452 11.6115 266.038 12.5814 265.302 13.2968C264.566 14.0122 263.567 14.4146 262.526 14.4157Z" fill="#CCCCCC"/>
<path d="M395.18 79.7106H358.526C357.485 79.7095 356.486 79.3071 355.75 78.5917C355.014 77.8763 354.6 76.9064 354.599 75.8947V69.1108C354.6 68.0992 355.014 67.1292 355.75 66.4139C356.486 65.6985 357.485 65.2961 358.526 65.2949H395.18C396.222 65.2961 397.22 65.6985 397.956 66.4139C398.692 67.1292 399.107 68.0992 399.108 69.1108V75.8947C399.107 76.9064 398.692 77.8763 397.956 78.5917C397.22 79.3071 396.222 79.7095 395.18 79.7106Z" fill="#CCCCCC"/>
<path d="M77.3201 399.452H88.0197L91.3649 359.353H77.3184L77.3201 399.452Z" fill="#FFB8B8"/>
<path d="M74.5908 396.058L95.6618 396.057H95.6626C97.426 396.057 99.1722 396.395 100.801 397.05C102.431 397.706 103.911 398.667 105.158 399.878C106.405 401.09 107.394 402.528 108.069 404.111C108.743 405.694 109.091 407.391 109.091 409.104V409.528L74.5915 409.53L74.5908 396.058Z" fill="#2F2E41"/>
<path d="M19.7205 399.452H30.4201L35.5107 359.353H19.7188L19.7205 399.452Z" fill="#FFB8B8"/>
<path d="M16.9912 396.058L38.0621 396.057H38.063C39.8264 396.057 41.5726 396.395 43.2018 397.05C44.831 397.706 46.3113 398.667 47.5582 399.878C48.8051 401.09 49.7942 402.528 50.4691 404.111C51.1439 405.694 51.4912 407.391 51.4912 409.104V409.528L16.9919 409.53L16.9912 396.058Z" fill="#2F2E41"/>
<path d="M21.6181 386.785C20.5267 386.784 19.4752 386.385 18.6727 385.667C18.2418 385.285 17.8949 384.822 17.6525 384.307C17.4102 383.791 17.2776 383.234 17.2626 382.667L12.9717 233.241L73.8977 248.04L92.6959 302.835C95.12 309.884 96.1693 317.311 95.79 324.734L93.4559 377.848C93.4026 378.937 92.9201 379.963 92.1084 380.714C91.2967 381.466 90.2183 381.885 89.0971 381.884H78.8784C77.8237 381.88 76.8058 381.506 76.0115 380.832C75.2173 380.157 74.6999 379.227 74.5542 378.212L67.2504 319.581C66.6122 315.008 64.9655 310.621 62.4227 306.723L48.0494 284.61C47.9533 284.463 47.8125 284.348 47.6465 284.281C47.4804 284.213 47.297 284.198 47.1215 284.236C46.946 284.274 46.7869 284.364 46.6659 284.493C46.5449 284.622 46.468 284.785 46.4456 284.958L35.166 382.551C35.0449 383.541 34.5683 384.458 33.82 385.14C33.0718 385.822 32.0999 386.225 31.0755 386.279L21.8665 386.777C21.7837 386.782 21.701 386.785 21.6181 386.785Z" fill="#2F2E41"/>
<path d="M63.7593 136.497C75.5975 136.497 85.1943 127.173 85.1943 115.67C85.1943 104.167 75.5975 94.8428 63.7593 94.8428C51.921 94.8428 42.3242 104.167 42.3242 115.67C42.3242 127.173 51.921 136.497 63.7593 136.497Z" fill="#FFB8B8"/>
<path d="M73.6063 254.117C73.2374 254.117 72.8701 254.071 72.5128 253.982H72.5122L12.0634 238.922C10.9826 238.653 10.049 237.992 9.45439 237.075C8.85981 236.158 8.64948 235.054 8.86669 233.991L22.7493 161.326C23.6142 157.126 25.5154 153.192 28.2895 149.863C31.0637 146.534 34.628 143.909 38.6763 142.213C42.6209 140.517 46.9347 139.79 51.2368 140.097C55.5389 140.404 59.6971 141.735 63.3445 143.973C64.1908 144.486 65.0433 145.045 65.8776 145.636C69.2367 148.043 71.9759 151.174 73.8806 154.783C75.7853 158.392 76.8036 162.381 76.8555 166.436L77.9594 249.817C77.9669 250.378 77.8599 250.935 77.6446 251.455C77.4294 251.975 77.1101 252.449 76.7054 252.849C76.3006 253.249 75.8184 253.567 75.2864 253.784C74.7545 254.002 74.1835 254.115 73.6063 254.117Z" fill="#0C9709"/>
<path d="M18.2829 254.972C17.5618 253.941 17.0822 252.769 16.8777 251.538C16.6733 250.307 16.7491 249.048 17.0997 247.849C17.4504 246.65 18.0673 245.54 18.9072 244.597C19.747 243.655 20.7893 242.903 21.9606 242.394L19.2719 212.205L33.5201 219.708L33.8889 247.226C34.6379 249.195 34.6178 251.362 33.8322 253.317C33.0467 255.272 31.5503 256.879 29.6267 257.834C27.703 258.789 25.4858 259.025 23.3951 258.497C21.3043 257.97 19.4854 256.715 18.283 254.972H18.2829Z" fill="#FFB8B8"/>
<path d="M23.3736 238.401C22.9716 238.401 22.5712 238.351 22.1817 238.255C21.344 238.047 20.5797 237.623 19.9695 237.028C19.3593 236.433 18.9259 235.689 18.7153 234.874L11.7133 207.837C9.26626 198.394 10.4328 188.409 14.9958 179.74L29.6653 151.856C30.5926 148.518 32.8332 145.667 35.9039 143.919C38.9745 142.172 42.6292 141.666 46.0797 142.513C47.7995 142.935 49.416 143.684 50.8354 144.718C52.2549 145.751 53.449 147.049 54.3486 148.534C55.2667 150.041 55.8672 151.71 56.115 153.444C56.3629 155.178 56.2531 156.943 55.7921 158.636L34.91 204.008L35.158 231.174C35.1644 232.132 34.8679 233.069 34.3084 233.859C33.7489 234.648 32.9535 235.251 32.0297 235.587L25.0415 238.109C24.5079 238.302 23.9431 238.401 23.3736 238.401Z" fill="#0C9709"/>
<path d="M123.332 243.867C122.057 243.726 120.83 243.314 119.736 242.662C118.643 242.01 117.71 241.132 117.003 240.092C116.297 239.052 115.833 237.873 115.646 236.64C115.459 235.407 115.552 234.148 115.92 232.954L90.6162 215.24L105.764 209.642L127.47 227.322C129.494 228.054 131.171 229.483 132.184 231.337C133.197 233.191 133.474 235.341 132.964 237.38C132.454 239.42 131.192 241.207 129.416 242.402C127.641 243.598 125.476 244.119 123.332 243.867H123.332Z" fill="#FFB8B8"/>
<path d="M110.086 230.932C109.34 230.931 108.604 230.762 107.936 230.439L82.279 217.959C73.3173 213.6 66.2895 206.228 62.5025 197.212L50.3216 168.219C48.3226 165.358 47.5608 161.849 48.2004 158.447C48.84 155.046 50.8298 152.024 53.7407 150.035C55.1951 149.041 56.8385 148.339 58.5751 147.969C60.3118 147.598 62.1069 147.568 63.8559 147.878C65.6254 148.187 67.3142 148.835 68.8244 149.783C70.3346 150.73 71.6361 151.96 72.6537 153.4L94.4239 198.377L115.776 215.916C116.528 216.536 117.065 217.366 117.316 218.293C117.567 219.219 117.519 220.199 117.178 221.098L114.586 227.889C114.248 228.78 113.637 229.548 112.835 230.091C112.029 230.638 111.069 230.932 110.086 230.932Z" fill="#0C9709"/>
<path d="M59.2579 136.816C60.3968 137.301 62.729 128.483 61.6843 126.719C60.1307 124.097 60.2225 124.116 59.1911 122.38C58.1597 120.645 57.9289 118.27 59.2646 116.743C60.6002 115.216 63.691 115.419 64.3006 117.333C63.9084 113.697 67.6099 110.774 71.2763 109.953C74.9427 109.132 78.81 109.642 82.4966 108.911C86.7751 108.063 91.2267 104.578 89.5196 100.006C89.2267 99.2453 88.7881 98.545 88.2271 97.9424C86.2548 95.7877 83.4959 94.8676 80.7984 93.978C75.1867 92.1274 69.4216 90.2534 63.4991 90.4577C58.6194 90.7056 53.9198 92.3303 49.9756 95.133C46.0314 97.9357 43.0135 101.795 41.2914 106.238C40.8833 107.35 40.5671 108.491 40.3459 109.651C38.3131 120.272 44.6604 130.748 54.9695 134.792L59.2579 136.816Z" fill="#2F2E41"/>
<path opacity="0.2" d="M33.9492 231.79L34.4353 203.867L49.6583 174.127L37.4401 204.655L33.9492 231.79Z" fill="black"/>
<path d="M171.995 301.867L107.729 275.923C106.32 275.359 105.062 274.49 104.051 273.383C103.04 272.276 102.302 270.959 101.894 269.533C101.474 268.09 101.398 266.573 101.672 265.098C101.947 263.623 102.564 262.228 103.477 261.019C119.708 239.305 130.45 214.183 134.835 187.686C135.072 186.204 135.654 184.795 136.536 183.565C137.419 182.336 138.578 181.317 139.926 180.589C141.255 179.864 142.736 179.442 144.257 179.357C145.778 179.272 147.299 179.526 148.704 180.098L212.97 206.042C215.187 206.944 217.001 208.581 218.091 210.662C219.181 212.742 219.476 215.131 218.923 217.403C211.739 245.802 200.124 272.966 184.481 297.95C183.214 299.934 181.264 301.417 178.977 302.134C176.691 302.851 174.216 302.757 171.995 301.867Z" fill="#E6E6E6"/>
<path d="M146.695 184.796C146.02 184.521 145.29 184.399 144.56 184.44C143.829 184.48 143.118 184.682 142.48 185.03C141.824 185.386 141.26 185.882 140.831 186.481C140.402 187.081 140.12 187.767 140.005 188.488C135.49 215.777 124.427 241.649 107.711 264.013C107.266 264.601 106.964 265.279 106.83 265.997C106.695 266.715 106.731 267.453 106.935 268.155L106.935 268.156C107.131 268.841 107.486 269.473 107.971 270.005C108.457 270.537 109.061 270.954 109.738 271.224L174.004 297.169C175.069 297.599 176.258 297.648 177.357 297.307C178.456 296.966 179.395 296.257 180.006 295.306C195.372 270.765 206.781 244.083 213.838 216.187C214.1 215.096 213.955 213.949 213.428 212.951C212.901 211.954 212.027 211.17 210.961 210.74L146.695 184.796Z" fill="white"/>
<path d="M180.913 242.55L147.189 228.935C145.908 228.416 144.891 227.425 144.361 226.178C143.831 224.931 143.832 223.531 144.363 222.285L145.148 220.449C145.682 219.204 146.703 218.215 147.986 217.701C149.269 217.186 150.71 217.186 151.992 217.703L185.717 231.317C186.998 231.836 188.015 232.828 188.545 234.075C189.075 235.321 189.074 236.721 188.543 237.968L187.758 239.804C187.224 241.049 186.203 242.037 184.92 242.552C183.637 243.067 182.196 243.066 180.913 242.55Z" fill="#0C9709"/>
<path d="M170.994 265.75L137.269 252.135C135.988 251.616 134.971 250.624 134.441 249.378C133.911 248.131 133.912 246.731 134.443 245.485L135.228 243.649C135.762 242.404 136.783 241.415 138.066 240.9C139.349 240.385 140.79 240.386 142.072 240.902L175.797 254.517C177.078 255.036 178.095 256.027 178.625 257.274C179.155 258.521 179.154 259.921 178.623 261.167L177.838 263.003C177.304 264.248 176.283 265.237 175 265.752C173.717 266.267 172.276 266.266 170.994 265.75Z" fill="#0C9709"/>
<path d="M194.427 209.945C193.922 209.945 193.422 209.85 192.955 209.665L158.972 196.315C158.008 195.935 157.237 195.199 156.831 194.267C156.424 193.336 156.414 192.286 156.803 191.348L159.421 185.058C159.811 184.12 160.569 183.371 161.528 182.976C162.487 182.581 163.568 182.572 164.534 182.951L198.516 196.301C199.481 196.681 200.251 197.417 200.657 198.349C201.064 199.28 201.074 200.33 200.685 201.268L198.068 207.558C197.774 208.262 197.27 208.866 196.622 209.291C195.974 209.716 195.209 209.944 194.427 209.945Z" fill="#CCCCCC"/>
<path d="M123.054 410H0.872727C0.641265 410 0.419296 409.911 0.255628 409.752C0.0919604 409.593 0 409.377 0 409.152C0 408.927 0.0919604 408.712 0.255628 408.553C0.419296 408.394 0.641265 408.304 0.872727 408.304H123.054C123.286 408.304 123.508 408.394 123.672 408.553C123.835 408.712 123.927 408.927 123.927 409.152C123.927 409.377 123.835 409.593 123.672 409.752C123.508 409.911 123.286 410 123.054 410Z" fill="#CCCCCC"/>
</g>
<defs>
<clipPath id="clip0_1_179">
<rect width="424" height="410" fill="white"/>
</clipPath>
</defs>
</svg>
